# AST/ASF file generated using VICON BodyLanguage
# -----------------------------------------------
:version 1.10
:name VICON
:units
  mass 1.0
  length 0.45
  angle deg
:documentation
   .ast/.asf automatically generated from VICON data using
   VICON BodyBuilder and BodyLanguage model FoxedUp or BRILLIANT.MOD
:root
   order TX TY TZ RX RY RZ
   axis XYZ
   position 0 0 0  
   orientation 0 0 0 
:bonedata
  begin
     id 1 
     name lhipjoint
     direction 0.635376 -0.686425 0.353719 
     length 2.47244 
     axis 0 0 0  XYZ
  end
  begin
     id 2 
     name lfemur
     direction 0.34202 -0.939693 0  
     length 7.25268  
     axis 0 0 20  XYZ
    dof rx ry rz
    limits (-160.0 20.0)
           (-70.0 70.0)
           (-60.0 70.0)
  end
  begin
     id 3 
     name ltibia
     direction 0.34202 -0.939693 0   
     length 7.6767   
     axis 0 0 20   XYZ
    dof rx
    limits (-10.0 170.0)
  end
  begin
     id 4 
     name lfoot
     direction 0.0803374 -0.220725 0.972022   
     length 2.22945   
     axis -90 7.62852e-016 20   XYZ
    dof rx rz
    limits (-45.0 90.0)
           (-70.0 20.0)
  end
  begin
     id 5 
     name ltoes
     direction 1.53579e-011 -4.21994e-011 1   
     length 1.11848   
     axis -90 7.62852e-016 20   XYZ
    dof rx
    limits (-90.0 20.0)
  end
  begin
     id 6 
     name rhipjoint
     direction -0.664428 -0.664335 0.342336   
     length 2.55466  
     axis 0 0 0  XYZ 
  end
  begin
     id 7 
     name rfemur
     direction -0.34202 -0.939693 0   
     length 6.83172   
     axis 0 0 -20   XYZ
    dof rx ry rz
    limits (-160.0 20.0)
           (-70.0 70.0)
           (-70.0 60.0)
  end
  begin
     id 8 
     name rtibia
     direction -0.34202 -0.939693 0   
     length 7.62692   
     axis 0 0 -20   XYZ
    dof rx
    limits (-10.0 170.0)
 end
 begin
     id 9 
     name rfoot
     direction -0.0949276 -0.260811 0.960711   
     length 2.19684  
     axis -90 -7.62852e-016 -20   XYZ
    dof rx rz
    limits (-45.0 90.0)
           (-20.0 70.0)
  end
  begin
     id 10 
     name rtoes
     direction -1.53543e-011 -4.2183e-011 1   
     length 1.09848   
     axis -90 -7.62852e-016 -20   XYZ
    dof rx
    limits (-90.0 20.0)
  end
  begin
     id 11 
     name lowerback
     direction 0.0118782 0.999815 -0.0151555   
     length 2.15772   
     axis 0 0 0   XYZ
    dof rx ry rz
    limits (-20.0 45.0)
           (-30.0 30.0)
           (-30.0 30.0)
  end
  begin
     id 12 
     name upperback
     direction 0.00130825 0.999065 0.0432113   
     length 2.14863   
     axis 0 0 0   XYZ
    dof rx ry rz
    limits (-20.0 45.0)
           (-30.0 30.0)
           (-30.0 30.0)
  end
  begin
     id 13 
     name thorax
     direction -0.00347005 0.998773 0.0494011   
     length 2.14936   
     axis 0 0 0   XYZ
    dof rx ry rz
    limits (-20.0 45.0)
           (-30.0 30.0)
           (-30.0 30.0)
  end
  begin
     id 14 
     name lowerneck
     direction -0.0262159 0.99424 0.103921   
     length 1.69373   
     axis 0 0 0   XYZ
    dof rx ry rz
    limits (-20.0 45.0)
           (-30.0 30.0)
           (-30.0 30.0)
  end
  begin
     id 15 
     name upperneck
     direction 0.0353511 0.977394 -0.20845   
     length 1.70857   
     axis 0 0 0   XYZ
    dof rx ry rz
    limits (-20.0 45.0)
           (-30.0 30.0)
           (-30.0 30.0)
  end
  begin
     id 16
     name head
     direction 0.0139214 0.996594 -0.0812836  
     length 1.72777  
     axis 0 0 0   XYZ
    dof rx ry rz
    limits (-20.0 45.0)
           (-30.0 30.0)
           (-30.0 30.0)
  end
  begin
     id 17 
     name lclavicle
     direction 0.841247 0.537205 -0.0609508  
     length 3.55371  
     axis 0 0 0   XYZ
    dof ry rz
    limits (-20.0 10.0)
           (0.0 20.0)
  end
  begin
     id 18 
     name lhumerus
     direction 1 -4.48964e-011 1.60116e-018   
     length 4.91377   
     axis -180 -30 -90   XYZ
    dof rx ry rz
    limits (-60.0 90.0)
           (-90.0 90.0)
           (-90.0 90.0)
  end
  begin
     id 19
     name lradius
     direction 1 -4.48989e-011 -8.93847e-027   
     length 3.00291   
     axis -180 -30 -90   XYZ
    dof rx
    limits (-10.0 170.0)
  end
  begin
     id 20
     name lwrist
     direction 1 -4.48932e-011 -7.31504e-027   
     length 1.50145   
     axis 5.74121e-015 90 90   XYZ
    dof ry
    limits (-180.0 0.0)
 end
  begin
     id 21 
     name lhand
     direction 1 -4.48971e-011 -1.46301e-026   
     length 0.450922   
     axis 9.33524e-015 90 90   XYZ
    dof rx rz
    limits (-90.0 90.0)
           (-45.0 45.0)
  end
  begin
     id 22 
     name lfingers
     direction 1 -4.49039e-011 -2.92602e-026   
     length 0.363545   
     axis 1.86705e-014 90 90   XYZ
    dof rx
    limits (0.0 90.0)
  end
  begin
     id 23
     name lthumb
     direction 0.707107 -6.34941e-011 0.707107   
     length 0.52198   
     axis -90 45 2.85299e-015   XYZ
    dof rx rz
    limits (-45.0 45.0)
           (-45.0 45.0)
  end
  begin
     id 24 
     name rclavicle
     direction -0.825079 0.56158 -0.0622297   
     length 3.39909  
     axis 0 0 0   XYZ 
    dof ry rz
    limits (-10.0 20.0)
           (-20.0 0.0)
  end
  begin
     id 25 
     name rhumerus
     direction -1 -4.48965e-011 1.61691e-027  
     length 4.86725   
     axis -180 30 90   XYZ
    dof rx ry rz
    limits (-90.0 60.0)
           (-90.0 90.0)
           (-90.0 90.0)
  end
  begin
     id 26 
     name rradius
     direction -1 -4.48964e-011 -2.25776e-027   
     length 3.17144   
     axis -180 30 90   XYZ
    dof rx
    limits (-10.0 170.0)
  end
  begin
     id 27 
     name rwrist
     direction -1 -4.48961e-011 -7.31504e-027   
     length 1.58572   
     axis 5.74121e-015 -90 -90   XYZ
    dof ry
    limits (-180.0 0.0)
  end
  begin
     id 28
     name rhand
     direction -1 -4.49013e-011 -1.46301e-026   
     length 0.419368   
     axis 9.33524e-015 -90 -90   XYZ
    dof rx rz
    limits (-90.0 90.0)
           (-45.0 45.0)
  end
  begin
     id 29
     name rfingers
     direction -1 -4.489e-011 -2.92602e-026   
     length 0.338105   
     axis 1.86705e-014 -90 -90   XYZ
    dof rx
    limits (0.0 90.0)
  end
  begin
     id 30
     name rthumb
     direction -0.707107 -6.35022e-011 0.707107   
     length 0.485453   
     axis -90 -45 -2.85299e-015   XYZ
    dof rx rz
    limits (-45.0 45.0)
           (-45.0 45.0)
  end
:hierarchy
  begin
    root lhipjoint rhipjoint lowerback
    lhipjoint lfemur
    lfemur ltibia
    ltibia lfoot
    lfoot ltoes
    rhipjoint rfemur
    rfemur rtibia
    rtibia rfoot
    rfoot rtoes
    lowerback upperback
    upperback thorax
    thorax lowerneck lclavicle rclavicle
    lowerneck upperneck
    upperneck head
    lclavicle lhumerus
    lhumerus lradius
    lradius lwrist
    lwrist lhand lthumb
    lhand lfingers
    rclavicle rhumerus
    rhumerus rradius
    rradius rwrist
    rwrist rhand rthumb
    rhand rfingers
  end

#!OML:ASF H:\Swim 2\Project 1\Capture day 1\Session 1\male.ASF
:FULLY-SPECIFIED
:DEGREES
888
root 4.96868 14.6854 11.8423 93.1212 -86.0564 -0.469368
lowerback 4.10123 2.89173 8.08817
upperback -4.33556 4.38847 -1.41507
thorax -6.15829 1.75874 -6.41512
lowerneck -24.5649 -1.91037 -5.51776
upperneck 33.9133 -3.40454 6.02016
head 16.566 -1.33046 2.86873
rclavicle -3.97569e-014 -2.05742e-014
rhumerus 77.9658 -22.4973 -23.8295
rradius 37.0839
rwrist -48.5258
rhand -26.8183 -1.19742
rfingers 7.12502
rthumb -0.244605 -31.177
lclavicle -3.97569e-014 -2.05742e-014
lhumerus 89.9522 28.8115 10.4111
lradius 38.8109
lwrist 72.0881
lhand -33.219 -14.6616
lfingers 7.12502
lthumb -6.42561 15.221
rfemur -64.8817 10.0279 7.07636
rtibia 38.2109
rfoot 24.7907 3.39795
rtoes 4.32643
lfemur -64.3789 7.1651 -17.5715
ltibia 43.8278
lfoot -9.45448 21.1368
ltoes -1.90859
889
root 4.96079 14.658 11.8541 94.9246 -86.0634 -2.29826
lowerback 4.0667 2.89577 8.19228
upperback -4.31113 4.39612 -1.43624
thorax -6.10311 1.76097 -6.49307
lowerneck -24.5853 -1.89693 -5.52076
upperneck 33.9254 -3.36185 5.96705
head 16.5717 -1.32128 2.85498
rclavicle 1.46306e-013 9.03476e-014
rhumerus 78.3944 -22.3829 -23.9537
rradius 36.4061
rwrist -47.5006
rhand -26.6031 -1.1421
rfingers 7.12502
rthumb -0.0367697 -31.1218
lclavicle 1.46306e-013 9.03476e-014
lhumerus 89.7294 28.7764 9.87777
lradius 38.5042
lwrist 72.3272
lhand -33.392 -14.676
lfingers 7.12502
lthumb -6.59265 15.2014
rfemur -65.5593 10.2023 7.83921
rtibia 38.8419
rfoot 25.3595 4.17423
rtoes 4.61399
lfemur -65.4198 8.25659 -19.6933
ltibia 44.5217
lfoot -8.46393 20.4073
ltoes -2.51717
890
root 4.95179 14.6326 11.8661 96.3324 -86.0711 -3.72332
lowerback 4.02931 2.89886 8.29946
upperback -4.28993 4.40262 -1.45329
thorax -6.05005 1.7624 -6.56823
lowerneck -24.6021 -1.8864 -5.53206
upperneck 33.9419 -3.31699 5.90521
head 16.5787 -1.31364 2.83941
rclavicle 7.31528e-014 6.2816e-014
rhumerus 78.8274 -22.2664 -24.0855
rradius 35.7295
rwrist -46.4239
rhand -26.3619 -1.1146
rfingers 7.12502
rthumb 0.19622 -31.0943
lclavicle 7.31528e-014 6.2816e-014
lhumerus 89.4438 28.7638 9.25165
lradius 38.2325
lwrist 72.5631
lhand -33.7199 -14.6625
lfingers 7.12502
lthumb -6.90919 15.2048
rfemur -66.1962 10.4105 8.50233
rtibia 39.4627
rfoot 25.8396 4.85028
rtoes 4.89693
lfemur -66.409 9.1789 -21.7111
ltibia 45.1705
lfoot -7.64405 19.7499
ltoes -3.12165
891
root 4.94159 14.6094 11.8784 97.4327 -86.084 -4.83653
lowerback 3.9945 2.90301 8.40605
upperback -4.27122 4.41083 -1.46833
thorax -6.00104 1.76449 -6.64134
lowerneck -24.6175 -1.88008 -5.54313
upperneck 33.9687 -3.27642 5.83501
head 16.5906 -1.30902 2.81953
rclavicle 6.52014e-014 4.67144e-014
rhumerus 79.2662 -22.1516 -24.229
rradius 35.038
rwrist -45.2271
rhand -26.0985 -1.10541
rfingers 7.12502
rthumb 0.450649 -31.0847
lclavicle 6.52014e-014 4.67144e-014
lhumerus 89.0923 28.7787 8.52485
lradius 37.9998
lwrist 72.8405
lhand -34.1735 -14.6499
lfingers 7.12502
lthumb -7.34704 15.2025
rfemur -66.791 10.6545 9.05767
rtibia 40.0686
rfoot 26.2335 5.44279
rtoes 5.2342
lfemur -67.3231 9.911 -23.5802
ltibia 45.772
lfoot -6.97623 19.1632
ltoes -3.74998
892
root 4.93004 14.5888 11.8912 98.2564 -86.106 -5.67501
lowerback 3.97156 2.90954 8.51015
upperback -4.25443 4.42323 -1.4825
thorax -5.9604 1.76833 -6.71335
lowerneck -24.6264 -1.87666 -5.55211
upperneck 34.0042 -3.23973 5.75761
head 16.6057 -1.30691 2.79553
rclavicle 6.36111e-015 1.17283e-014
rhumerus 79.7024 -22.041 -24.3763
rradius 34.3383
rwrist -43.9215
rhand -25.8481 -1.12167
rfingers 7.12502
rthumb 0.692463 -31.1003
lclavicle 6.36111e-015 1.17283e-014
lhumerus 88.6668 28.8185 7.71401
lradius 37.8531
lwrist 73.2116
lhand -34.7711 -14.6541
lfingers 7.12502
lthumb -7.92381 15.1773
rfemur -67.3374 10.9289 9.50877
rtibia 40.6531
rfoot 26.5484 5.97806
rtoes 5.61251
lfemur -68.1371 10.4496 -25.2674
ltibia 46.3221
lfoot -6.48523 18.5963
ltoes -4.26451
893
root 4.91675 14.5711 11.9042 98.8214 -86.1383 -6.25897
lowerback 3.96424 2.91391 8.6154
upperback -4.23905 4.43422 -1.49817
thorax -5.9303 1.7708 -6.78876
lowerneck -24.6317 -1.87042 -5.55689
upperneck 34.0469 -3.19992 5.67522
head 16.6231 -1.30391 2.76941
rclavicle -1.08139e-013 -7.38485e-014
rhumerus 80.144 -21.9303 -24.5421
rradius 33.6441
rwrist -42.5678
rhand -25.6374 -1.15946
rfingers 7.12502
rthumb 0.895917 -31.1373
lclavicle -1.08139e-013 -7.38485e-014
lhumerus 88.2193 28.8731 6.87779
lradius 37.7246
lwrist 73.5999
lhand -35.3679 -14.6878
lfingers 7.12502
lthumb -8.49987 15.1212
rfemur -67.8299 11.22 9.86992
rtibia 41.2085
rfoot 26.7972 6.46051
rtoes 6.04226
lfemur -68.8383 10.8219 -26.7755
ltibia 46.8159
lfoot -6.13318 18.0104
ltoes -4.74573
894
root 4.90141 14.5562 11.9176 99.1672 -86.1801 -6.63012
lowerback 3.97308 2.91591 8.72415
upperback -4.22385 4.44378 -1.51507
thorax -5.90966 1.77188 -6.86859
lowerneck -24.6275 -1.86032 -5.5551
upperneck 34.0899 -3.15527 5.5855
head 16.6378 -1.29933 2.73981
rclavicle -2.22639e-014 2.50469e-014
rhumerus 80.5784 -21.8228 -24.7217
rradius 32.9924
rwrist -41.2893
rhand -25.4791 -1.20344
rfingers 7.12502
rthumb 1.04881 -31.1806
lclavicle -2.22639e-014 2.50469e-014
lhumerus 87.7696 28.9334 6.06138
lradius 37.6124
lwrist 73.9581
lhand -35.9239 -14.7522
lfingers 7.12502
lthumb -9.03634 15.0343
rfemur -68.2608 11.5159 10.1592
rtibia 41.7279
rfoot 26.9872 6.88862
rtoes 6.54208
lfemur -69.421 11.0651 -28.117
ltibia 47.2499
lfoot -5.89056 17.3598
ltoes -5.19637
895
root 4.88377 14.5441 11.9312 99.2064 -86.2179 -6.69972
lowerback 3.99023 2.91761 8.84077
upperback -4.20787 4.45447 -1.52578
thorax -5.8927 1.77309 -6.9469
lowerneck -24.6114 -1.85362 -5.56754
upperneck 34.1316 -3.11359 5.50452
head 16.6498 -1.29672 2.71588
rclavicle -5.24792e-014 -6.40087e-014
rhumerus 80.9797 -21.7252 -24.8896
rradius 32.4232
rwrist -40.2088
rhand -25.3846 -1.24311
rfingers 7.12502
rthumb 1.14007 -31.2198
lclavicle -5.24792e-014 -6.40087e-014
lhumerus 87.3659 28.9875 5.34211
lradius 37.4788
lwrist 74.2111
lhand -36.3653 -14.8526
lfingers 7.12502
lthumb -9.46229 14.915
rfemur -68.6256 11.8081 10.4037
rtibia 42.2058
rfoot 27.1081 7.25642
rtoes 7.07125
lfemur -69.8846 11.2012 -29.2839
ltibia 47.6227
lfoot -5.73618 16.6227
ltoes -5.67031
896
root 4.86341 14.5349 11.9451 99.0016 -86.256 -6.52913
lowerback 4.01194 2.91888 8.95636
upperback -4.18987 4.46509 -1.53156
thorax -5.87662 1.77443 -7.01963
lowerneck -24.5889 -1.84497 -5.57527
upperneck 34.1757 -3.0708 5.42054
head 16.6613 -1.29363 2.69003
rclavicle 7.95139e-015 -6.22196e-014
rhumerus 81.343 -21.6425 -25.0557
rradius 31.9621
rwrist -39.4018
rhand -25.3583 -1.27275
rfingers 7.12502
rthumb 1.16554 -31.2493
lclavicle 7.95139e-015 -6.22196e-014
lhumerus 87.028 29.0336 4.75085
lradius 37.321
lwrist 74.3386
lhand -36.6846 -14.9684
lfingers 7.12502
lthumb -9.77035 14.785
rfemur -68.9204 12.0759 10.6236
rtibia 42.639
rfoot 27.1571 7.57041
rtoes 7.6234
lfemur -70.228 11.2478 -30.2861
ltibia 47.9353
lfoot -5.64944 15.8032
ltoes -6.15295
897
root 4.84007 14.5285 11.9597 98.4642 -86.2917 -6.03023
lowerback 4.03601 2.9177 9.07163
upperback -4.1693 4.47277 -1.53128
thorax -5.86012 1.77457 -7.0856
lowerneck -24.5639 -1.84285 -5.58414
upperneck 34.2219 -3.04123 5.34534
head 16.6747 -1.29479 2.66558
rclavicle 3.97569e-014 4.77083e-015
rhumerus 81.6767 -21.5703 -25.2435
rradius 31.6121
rwrist -38.8541
rhand -25.3591 -1.28461
rfingers 7.12502
rthumb 1.16478 -31.2612
lclavicle 3.97569e-014 4.77083e-015
lhumerus 86.7719 29.0707 4.31932
lradius 37.1489
lwrist 74.3512
lhand -36.936 -15.0554
lfingers 7.12502
lthumb -10.0129 14.6865
rfemur -69.1394 12.3039 10.8385
rtibia 43.0255
rfoot 27.1253 7.81776
rtoes 8.11822
lfemur -70.4518 11.2165 -31.1307
ltibia 48.1897
lfoot -5.59828 14.912
ltoes -6.69817
898
root 4.81407 14.5243 11.9746 97.5589 -86.3141 -5.16426
lowerback 4.05678 2.91736 9.18515
upperback -4.14626 4.48139 -1.52087
thorax -5.83973 1.77575 -7.13942
lowerneck -24.5309 -1.85906 -5.59299
upperneck 34.2573 -3.04421 5.28504
head 16.6839 -1.30669 2.64058
rclavicle 3.18055e-015 -2.19657e-014
rhumerus 81.9666 -21.5208 -25.447
rradius 31.37
rwrist -38.5241
rhand -25.4072 -1.29828
rfingers 7.12502
rthumb 1.11826 -31.2751
lclavicle 3.18055e-015 -2.19657e-014
lhumerus 86.6207 29.1008 4.07679
lradius 36.9727
lwrist 74.2862
lhand -37.1504 -15.1148
lfingers 7.12502
lthumb -10.2198 14.617
rfemur -69.2844 12.4772 11.0789
rtibia 43.3658
rfoot 27.0132 7.99317
rtoes 8.47095
lfemur -70.5746 11.138 -31.8437
ltibia 48.3897
lfoot -5.4964 13.9671
ltoes -7.54417
899
root 4.78514 14.5222 11.9898 96.3577 -86.3287 -4.00458
lowerback 4.07556 2.91642 9.28735
upperback -4.12057 4.48842 -1.5022
thorax -5.81692 1.77706 -7.17764
lowerneck -24.5019 -1.88523 -5.58976
upperneck 34.2833 -3.06976 5.23413
head 16.6911 -1.32439 2.61264
rclavicle -4.92986e-014 -7.02704e-014
rhumerus 82.2187 -21.4888 -25.67
rradius 31.2177
rwrist -38.337
rhand -25.4815 -1.297
rfingers 7.12502
rthumb 1.04654 -31.2742
lclavicle -4.92986e-014 -7.02704e-014
lhumerus 86.5556 29.1315 3.9869
lradius 36.7842
lwrist 74.1794
lhand -37.2504 -15.1813
lfingers 7.12502
lthumb -10.3162 14.5456
rfemur -69.3541 12.5845 11.3557
rtibia 43.6607
rfoot 26.8431 8.10021
rtoes 8.65954
lfemur -70.5947 11.0087 -32.4254
ltibia 48.5395
lfoot -5.37458 13.018
ltoes -8.57815
900
root 4.75328 14.5221 12.0053 94.8635 -86.3365 -2.55779
lowerback 4.09421 2.91437 9.3814
upperback -4.09118 4.49342 -1.47752
thorax -5.79135 1.77815 -7.20452
lowerneck -24.4649 -1.92051 -5.57489
upperneck 34.2858 -3.11584 5.19296
head 16.686 -1.34703 2.58196
rclavicle -8.5875e-014 -2.77305e-014
rhumerus 82.4716 -21.466 -25.9584
rradius 31.1036
rwrist -38.1845
rhand -25.548 -1.28709
rfingers 7.12502
rthumb 0.982282 -31.2646
lclavicle -8.5875e-014 -2.77305e-014
lhumerus 86.5483 29.1654 4.03567
lradius 36.6502
lwrist 74.0914
lhand -37.3661 -15.219
lfingers 7.12502
lthumb -10.4278 14.5024
rfemur -69.347 12.6192 11.6757
rtibia 43.9118
rfoot 26.6333 8.15068
rtoes 8.63578
lfemur -70.5149 10.8354 -32.8855
ltibia 48.6447
lfoot -5.23674 12.0889
ltoes -9.74135
901
root 4.71877 14.5238 12.0209 93.1208 -86.3356 -0.863624
lowerback 4.11068 2.91166 9.47212
upperback -4.06009 4.49707 -1.45036
thorax -5.76333 1.779 -7.22653
lowerneck -24.4186 -1.95673 -5.54798
upperneck 34.2593 -3.17071 5.16337
head 16.6648 -1.36956 2.55161
rclavicle -9.06458e-014 -1.86858e-014
rhumerus 82.7273 -21.4541 -26.3027
rradius 30.9996
rwrist -38.0208
rhand -25.5861 -1.26183
rfingers 7.12502
rthumb 0.945502 -31.2395
lclavicle -9.06458e-014 -1.86858e-014
lhumerus 86.5968 29.2076 4.17178
lradius 36.526
lwrist 74.0321
lhand -37.4463 -15.2355
lfingers 7.12502
lthumb -10.5052 14.482
rfemur -69.2744 12.5816 12.0384
rtibia 44.1216
rfoot 26.4125 8.15532
rtoes 8.40187
lfemur -70.3536 10.6362 -33.2461
ltibia 48.7126
lfoot -5.11541 11.2008
ltoes -10.8855
